<?xml version="1.0" encoding="UTF-8"?> <svg xmlns="http://www.w3.org/2000/svg" viewBox="0 0 24 24"><path fill="#44be4c" d="M12.002 3.581a8.42 8.42 0 0 1 .048 16.838H12a8.419 8.419 0 0 1-.05-16.838h.052zm0-2.4h-.065a10.82 10.82 0 1 0 .065 0zm-2.6 9.619H7.317a.157.157 0 0 0-.158.158v2.085a.157.157 0 0 0 .158.157H9.4a.158.158 0 0 0 .159-.158v-2.084A.158.158 0 0 0 9.4 10.8zM7.16 14.599v2.083a.158.158 0 0 0 .158.159h2.083a.158.158 0 0 0 .159-.159V14.6a.158.158 0 0 0-.159-.159H7.318a.159.159 0 0 0-.158.159zm2.24-7.44H7.317a.157.157 0 0 0-.157.158v2.084a.159.159 0 0 0 .158.159h2.083a.158.158 0 0 0 .159-.16V7.319a.159.159 0 0 0-.16-.159zm7.44 2.243V7.318a.157.157 0 0 0-.158-.158h-2.084a.159.159 0 0 0-.159.158v2.083a.158.158 0 0 0 .159.159h2.083a.158.158 0 0 0 .158-.159zM10.957 13.2h2.084a.158.158 0 0 0 .158-.158v-2.084a.158.158 0 0 0-.158-.158h-2.084a.158.158 0 0 0-.158.158v2.084a.158.158 0 0 0 .158.158zM13.2 9.402V7.318a.16.16 0 0 0-.097-.146.158.158 0 0 0-.06-.012h-2.085a.158.158 0 0 0-.158.158v2.084a.158.158 0 0 0 .158.158h2.084a.158.158 0 0 0 .158-.16zm1.4 7.438h2.084a.157.157 0 0 0 .157-.159V14.6a.159.159 0 0 0-.158-.159H14.6a.158.158 0 0 0-.159.159v2.083a.159.159 0 0 0 .159.159zm-3.8-2.243v2.084a.158.158 0 0 0 .16.159h2.083a.158.158 0 0 0 .158-.159V14.6a.159.159 0 0 0-.158-.159h-2.084a.157.157 0 0 0-.158.159zm3.641-3.64v2.084a.158.158 0 0 0 .159.158h2.083a.158.158 0 0 0 .158-.158v-2.084a.158.158 0 0 0-.158-.158H14.6a.16.16 0 0 0-.147.098.158.158 0 0 0-.012.06z"></path></svg> 