<?xml version="1.0" encoding="UTF-8"?> <svg xmlns="http://www.w3.org/2000/svg" viewBox="0 0 24 24"><path fill="#44be4c" d="M21.443 14.656c-.02.488-.205.954-.523 1.323.176.446.203.937.078 1.4a2.16 2.16 0 0 1-.788 1.204c.002.422-.154.83-.437 1.143-.415.443-1.122.67-2.16.697-.28.007-.57.017-.87.027-.604.022-1.256.044-1.942.044-1.448 0-3.047-.101-4.672-.534a7.666 7.666 0 0 1-1.566-.618V11.24a43.277 43.277 0 0 0 2.253-2.334c1.24-1.428 1.964-2.404 2.237-3.468.065-.25.118-.482.164-.686.204-.892.352-1.536 1.072-1.702a1.083 1.083 0 0 1 .956.233c.768.628 1.005 2.217.976 3.388-.031 1.206-.476 2.301-.805 2.95a23.8 23.8 0 0 1 1.827.28l.315.06c1.964.37 3.262.615 3.681 1.79a2.39 2.39 0 0 1-.065 1.65c.209.384.303.82.27 1.256zM7.384 20.112V11.02a.428.428 0 0 0-.428-.428H3.422a.427.427 0 0 0-.427.428v9.09a.428.428 0 0 0 .427.428h3.534a.427.427 0 0 0 .428-.427z"></path></svg> 